<?xml version="1.0" encoding="utf-8"?>
<!-- Generator: Adobe Illustrator 19.0.0, SVG Export Plug-In . SVG Version: 6.00 Build 0)  -->
<svg version="1.1" id="Capa_1" xmlns="http://www.w3.org/2000/svg" xmlns:xlink="http://www.w3.org/1999/xlink" x="0px" y="0px"
	 viewBox="-31 189.6 777.3 216.7" style="enable-background:new -31 189.6 777.3 216.7;" xml:space="preserve">
<style type="text/css">
	.st0{fill:#FFFFFF;}
	.st1{fill:#8E45AD;}
</style>
<g>
	<g id="XMLID_58_">
		<path id="XMLID_86_" class="st0" d="M272.3,287.1c0,0.6,0,1.2,0,1.7c0,5.8,0,11.6,0,17.4c0,1.4,0.1,2.8,0,4.1
			c-0.1,1.3,0.2,2.5-0.2,3.8c-0.4,1.3,0,2.7-0.3,4c-0.5,2.4-0.6,4.9-1.3,7.2c-0.6,2.2-1.3,4.4-2.3,6.6c-1.3,2.8-3,5.4-4.8,7.9
			c-1.4,2-3.1,3.6-4.9,5.2c-1.6,1.4-3.4,2.6-5.2,3.7c-1.8,1.1-3.7,1.9-5.6,2.7c-2.2,1-4.5,1.8-6.8,2.3c-1.6,0.4-3.4,1-5.2,0.7
			c-2.6,1-5.4,0.4-8.1,0.5c-1.2,0.1-2.5,0.1-3.7-0.4c-1-0.4-2.4,0.4-3.4-0.6c-5.8-1.2-9.7-2.5-14.2-5.2c-2.5-1.5-4.9-3.1-7-5.1
			c-3-2.8-5.5-5.9-7.7-9.3c-1-1.6-1.7-3.2-2.4-5c-0.5-1.3-1.2-2.5-1.3-3.9c0-0.2-0.3-0.4-0.7-0.7c-0.1,0.6-0.1,1.1-0.1,1.5
			c0,8.6,0,17.1,0,25.7c0,0.5,0,1,0,1.6c-0.1,1-0.5,1.4-1.6,1.5c-0.2,0-0.3,0-0.5,0c-6.4,0-12.8,0-19.2,0c-1.8,0-2-0.2-2-2
			c0-6.1,0-12.3,0-18.4c0-33.8,0-67.6,0-101.4c0-0.8,0-1.7,0-2.9c-0.6,0.4-1.2,0.5-1.4,0.9c-2,3.7-4.7,7-6.9,10.6
			c-1.9,3-3.9,6-5.9,9c-2.2,3.3-4.3,6.5-6.5,9.8c-3.3,4.9-6.5,9.9-9.8,14.9c-4,6-8,12.1-12,18.1c-3.3,4.9-6.6,9.7-9.8,14.6
			c-3.7,5.5-7.3,11-10.9,16.5c-3.2,4.8-6.4,9.6-9.6,14.4c-3.5,5.2-7,10.4-10.5,15.6c-0.1,0.1-0.2,0.2-0.3,0.3c-9.6,0-19.2,0-29,0
			c0.3-0.7,0.4-1.4,0.8-1.8c1.1-1.1,1.7-2.6,2.8-3.8c1.7-1.9,2.8-4.1,4.3-6c1.3-1.6,2.4-3.3,3.5-5s2.2-3.4,3.5-5.1
			c1.7-2.1,2.9-4.5,4.5-6.7c2.8-3.7,5-7.9,8-11.5c1.2-1.5,2.2-3.2,3.3-4.8c2.4-3.4,4.5-7,7.1-10.3c1.6-2,2.9-4.3,4.4-6.5
			c2.7-3.9,5.1-8,8.1-11.7c1.2-1.5,2.3-3.2,3.3-4.9c0.7-1.2,1.7-2.2,2.4-3.4c0.7-1.1,1.5-2.1,2.2-3.3c0.7-1.2,1.5-2.3,2.4-3.4
			c1.6-2.2,2.9-4.5,4.5-6.7c2.8-3.7,5-7.9,8-11.5c1.2-1.5,2.2-3.2,3.3-4.8c2.4-3.4,4.5-7,7.1-10.3c1.6-2.1,2.8-4.6,4.4-6.7
			c2.9-3.7,5-7.9,8.1-11.5c1.3-1.5,2.3-3.2,3.3-4.9c1.1-2,2.6-3.7,3.7-5.7c1.1-1.9,2.5-3.6,3.8-5.4c0.5-0.7,1.2-1.1,2.2-1.1
			c9,0,18,0,27.1,0c0,0.9,0,1.7,0,2.6c0,38.9,0,77.8,0,116.7c0,3-0.2,3.2,3,3.2c6.8,0,13.7,0,20.5,0c0.8,1.5,1.6,2.9,2.4,4.4
			c2.1,4.4,6,6.5,10.3,8c1.1,0.4,2.4,0.4,3.7,0.5c1.2,0.1,2.4,0,3.6,0c5.3,0.1,9.6-2.1,13-6.1c1.7-2,2.8-4.4,3.5-6.8
			c0.6-1.9,0.9-3.8,1.2-5.8c0.4-2.5,0.3-5.1,0.4-7.6s0-5,0-7.5c0-26.7,0-53.4,0-80.3c-10.7,0-21.3,0-32.1,0c0-7.2,0-14.1,0-21.3
			c0.7,0,1.4,0,2.2,0c16.8,0,33.5,0,50.3,0c0.4,0,0.9,0,1.3,0c1.3,0,1.6,0.4,1.6,1.7c0,0.5,0,1,0,1.6c0,20.7,0,41.5,0,62.2
			c0,0.8,0.1,1.7,0.5,2.5c0-0.7-0.1-1.5,0-2.2c0.1-0.6,0.4-1.2,0.5-1.9c0.6-3.9,1.6-7.7,2.9-11.5c0.9-2.6,2.3-4.9,3-7.6
			c1.3-1,1.2-2.8,2.3-4c0.9-1,1.5-2.5,2.1-3.7c1-2,2.4-3.7,3.6-5.5c1.7-2.6,3.7-5,6-7.1c1.3-1.2,2.6-2.6,3.9-3.8
			c3.1-3.1,6.7-5.7,10.4-8.1c3.7-2.4,7.7-4.4,11.7-6.3c1.5-0.7,3-1.1,4.5-1.7c1.4-0.6,3-1.1,4.6-1.5c2.1-0.5,4.2-1.1,6.3-1.7
			c0.3-0.1,0.6-0.2,0.9-0.3c1.8-0.2,3.7-0.1,5.5-0.6c3-0.8,5.9-0.3,8.9-0.4s6-0.1,9.1,0c0.9,0,1.8,0.4,2.6,0.5c1,0,1.9,0.3,2.9,0.5
			c0.9,0.2,1.9-0.3,2.6,0.5c3.1,0,5.9,1.2,8.7,2.2c2.1,0.7,4.3,1.3,6.2,2.5c1.3,0.8,2.9,0.9,4.2,1.7c3.1,1.9,6.4,3.4,9.4,5.6
			c2.3,1.7,4.5,3.3,6.7,5.1c1.9,1.6,3.7,3.3,5.4,5c3.7,3.8,6.9,8.1,9.8,12.5c1.4,2.2,2.9,4.5,3.9,6.9c1.9,4.4,4.1,8.7,5,13.5
			c0.2,1.2,0.6,2.4,1.1,3.4c0.6,1.2-0.1,2.6,0.9,3.5c0.1,0.1,0,0.3,0,0.5c-0.2,2.2,0.9,4.3,0.5,6.5c1.1,4.1,0.3,8.3,0.5,12.5
			c0,1-0.3,2.1-0.5,3.2s0.4,2.2-0.4,3.2c-0.2,0.3,0,0.8-0.1,1.2c-0.2,1.2-0.3,2.5-0.5,3.7c-0.2,1.1-0.6,2.2-0.9,3.3
			c-0.4,1.6-0.7,3.3-1.2,4.9c-0.3,1.1-0.9,2.2-1.4,3.3c-1.7,4.3-3.7,8.5-6.2,12.4c-1.4,2.1-2.8,4.2-4.2,6.3c-2.7,4-6.1,7.2-9.6,10.6
			c-2.3,2.2-4.9,4-7.3,6c-4.5,3.6-9.5,6.2-14.6,8.6c-3.5,1.7-7.2,3-11.1,3.8c-1.2,0.2-2.6,0.6-3.7,1.1c-1.4,0.6-3-0.1-4.3,0.9
			c-2.5-0.2-5,0.8-7.6,0.6c-1-0.1-2.1,0.4-3.2,0.5c-1,0.1-2.1,0-3.1,0c-2.5,0-5-0.5-7.6-0.6c-2.3-0.2-4.6-0.3-6.8-1
			c-1-0.3-2-0.2-2.9-0.5s-1.8-0.6-2.7-0.9c-0.9-0.3-2-0.2-2.9-0.6c-1.5-0.7-3-1.1-4.5-1.7c-3-1.3-6-2.6-8.9-4.2
			c-3.8-2.1-7.4-4.4-10.8-7.1c-3.8-2.9-7.3-6.1-10.5-9.6c-1.9-2.1-3.5-4.4-5.3-6.6c-2.4-3-3.8-6.5-6.1-9.4c-0.7-2.5-2.2-4.6-3.1-7
			c-1-2.7-1.8-5.5-2.9-8.1c-0.4-0.8,0.3-2-0.8-2.5C273.9,292.4,272.8,289.9,272.3,287.1z M350.5,333.8c1.3,0,2.6,0,3.9,0
			c1.2,0,2.4-0.1,3.7-0.4c1.1-0.4,2.4-0.3,3.7-0.5c2.9-0.4,5.7-1.3,8.5-2.2c3.9-1.2,7.6-3.2,10.9-5.5c2.6-1.7,5.2-3.7,7.3-6.1
			c1.9-2.1,4.1-3.9,5.7-6.2c0.3-0.5,0.6-1,0.9-1.4c0.4-0.5,0.9-1,1.2-1.6c2.1-3.3,3.9-6.8,5.6-10.4c0.2-0.5,0.5-1,0.7-1.5
			c0.9-3.4,2.4-6.7,2.6-10.3c0.9-1.2,0.1-2.7,0.6-3.9c0.7-1.4,0.4-2.7,0.4-4c-0.1-3.4,0.5-6.8-0.4-10.2c-0.3-1,0-2.1-0.5-3.2
			c-0.4-0.9-0.3-2.1-0.5-3.1c-0.8-4.4-2.6-8.4-4.3-12.5c-0.7-1.6-1.7-3.1-2.6-4.6c-1.5-2.8-3.5-5.4-5.6-7.8
			c-4-4.4-8.2-8.5-13.4-11.4c-2.7-1.5-5.4-3.1-8.4-4.1c-2.5-0.8-4.9-2.1-7.7-2.2c-2.4-1.3-5.2-0.7-7.7-1.5
			c-3.8,0.3-7.6-0.4-11.5,0.4c-2.1,0.4-4.2,0.7-6.3,1.1c-2.5,0.5-7.1,1.8-10,3.4c-1.9,1-3.8,2-5.7,3.1c-1.8,1.1-3.7,2.3-5.2,3.7
			c-1.7,1.6-3.6,2.8-5,4.8s-3.2,3.6-4.6,5.6c-2.6,3.9-4.5,6.9-6.5,11.8c-3.1,7.6-3.3,9.3-4.2,14.1c-0.2,1.1-0.6,2.3-0.4,3.4
			c0.2,1.3-0.5,2.4-0.6,3.7c-0.3,3.3,0.7,6.6,0.5,9.9c0.8,1.1,0.2,2.5,0.6,3.6c1.2,3.1,1.2,6.5,3,9.4c0.2,2.5,1.6,4.5,2.6,6.7
			c0.4,0.9,1.1,1.6,1.5,2.5c1.8,3.8,4.3,7,7,10c1.9,2.1,4,4.1,6.3,6c2.6,2.1,5.4,3.9,8.4,5.5c3.7,2,7.4,3.5,12.3,4.2
			c0.8,1.2,2.2,0.2,3.3,0.9c0.9,0.7,2.4-0.1,3.7,0.5c1,0.5,2.4,0.1,3.6,0.1C348.7,333.8,349.6,333.8,350.5,333.8z"/>
		<path id="XMLID_82_" class="st0" d="M388.7,354.5c2.4-1.2,4.3-2.1,6.3-3.1c3.5-1.7,6.8-3.9,9.8-6.3c1.9-1.5,3.8-3,5.6-4.6
			c1.2-1.1,2.1-2.4,3.1-3.6s2.4-1.9,3-3.4c0.3-0.7,1-0.8,1.7-0.8c5.1,0,10.2,0,15.3,0c4.8,0,9.5-0.1,14.3,0c1.3,0,2.4-0.5,3.7-0.6
			c1.1,0,2.4-0.1,3.4-0.5c2.9-1.4,6-2.1,8.7-4.2c3.2-2.5,5.9-5.2,7.4-9.1c0.6-1.7,1.2-3.3,1.6-5.1c0.4-1.7,0.3-3.3,0.4-5
			c0.1-1.8-0.4-3.4-0.8-5.1c-0.5-2.5-1.6-5-3-7c-2.1-3-4.6-5.9-7.8-7.9c-0.6-0.4-3.4-1.5-4.2-1.7c-2-0.5-4-0.8-6-1.1
			c-3.9-0.7-7.8-0.2-11.7-0.4c-0.9-0.1-1.7,0-2.7,0c0-7.2,0-14.4,0-21.7c0.6,0,1.2-0.1,1.9-0.1c3.9,0.1,7.8-0.8,11.5-1.7
			c2-0.5,3.9-1.8,5.8-2.9c3.5-2.1,5.6-5.4,6.8-9.3c0.3-0.8,0.2-1.5,0.3-2.2c0.8-4.5,0.8-7.2,0-11.7c-0.5-2.6-1.5-5-3.3-6.9
			c-0.8-0.9-1.5-2-2.4-2.9c-0.9-0.8-2-1.4-3-2c-0.9-0.6-5.7-2.2-6.8-2.5c-6.2-1.5-12.5-0.9-18.8-1c-3.5-0.1-7.1,0-10.5,0
			c-7.4-9.7-16.6-16.9-27.9-21.6c0.5-0.1,0.9-0.2,1.3-0.2c17.3,0,34.6,0,51.9,0c1.1,0,2.1,0.3,3.2,0.5c1.1,0.2,2.1-0.1,3.2,0.4
			c1,0.5,2.3,0.4,3.4,0.5c2.5,0.3,4.8,1.2,7.2,2c3.3,1.1,6.3,2.7,9.4,4.3c0.4,0.2,0.7,0.7,1.1,1c2.6,2,5.2,3.9,7.1,6.6
			c1.3,1.9,4.5,6.2,5.7,9.6c0.7,2,1.3,4.1,2.2,6.1c0.5,1.1-0.2,2.2,0.6,3.3c0.3-0.1,0.6-0.2,0.8-0.4c2.1-2.9,4.6-5.6,6.7-8.4
			c2.3-3.1,5.4-5.4,8.2-7.9c2.7-2.4,5.7-4.6,9-6.3c1.7-0.8,3.2-2.2,5-3c2.8-1.3,5.7-2.6,8.6-3.7c3-1.2,6.2-1.7,9.2-2.8
			c1.1-0.4,2.2-0.3,3.3-0.7c1.6-0.5,3.4-0.2,4.9-0.6c2.5-0.7,5.1-0.4,7.6-0.5c2.6-0.1,5.2-0.1,7.8,0c1.3,0,2.7-0.3,4,0.4
			c1.2,0.6,2.6-0.1,3.9,0.6c1.1,0.5,2.6,0.2,3.9,0.6c4.4,1.1,8.7,2.4,12.9,4c3.5,1.4,6.8,3.2,10.2,4.9c2.5,1.2,4.7,2.9,7,4.5
			c3.1,2.2,5.9,4.8,8.6,7.5c0.5,0.5,1.1,1.1,1.7,1.7c1-1.5,1.7-3,2.5-4.3c1-1.7,2.2-3.3,3.5-4.8c0.8-1,1.5-2.1,2.4-2.9
			c2.9-2.5,5.9-5,9.3-6.8c2.6-1.4,5.3-2.6,8.2-3.4c0.9-0.3,1.8-0.7,2.8-0.8c1.6-0.3,3.3,0,4.7-0.6c1.7-0.7,3.3-0.3,5-0.4
			c1.6-0.1,3.3-0.1,4.9,0c0.9,0,1.8,0.3,2.6,0.5c0.9,0.2,1.7-0.2,2.7,0.4c0.8,0.5,2.2-0.4,3.1,0.6c3.8,0.5,7.2,2.2,10.6,3.9
			c2.7,1.4,5.3,3,7.4,5.3c1.9,2,4,3.7,5.5,6c1.6,2.4,3.1,4.9,4.2,7.6c0.7,1.6,1.1,3.3,1.7,5c0.5,1.4,1,2.8,0.9,4.3
			c-0.1,1.4,0.8,2.7,0.6,4.2c-0.2,1.4,0,2.9,0,4.6c-0.7,0-1.3,0-2,0c-6,0-12.1,0-18.1,0c-0.5,0-1.1,0.1-1.5,0
			c-0.5-0.2-1-0.7-1.1-1.1c-0.2-0.6,0-1.4,0-2.1c0-2.1-1-5.7-2.1-8c-1.5-3.1-3.6-5.7-6.6-7.5c-1.8-1.1-4.8-2.2-7.2-2.7
			c-2.3-0.5-4.6-0.6-6.8-0.3c-3.1,0.3-6.2,1.4-8.6,3.5c-0.6,0.5-1.4,0.9-2,1.5c-3.1,2.7-4.7,6.4-6.1,10.2c-0.8,2.1-0.3,4.2-0.5,6.3
			c-0.2,2.2,0.7,4.1,1.4,6.2c0.9,2.6,3.1,4.3,5,5.9c2.2,1.9,4.8,3.3,7.4,4.5c2.4,1.1,4.9,1.9,7.4,2.9c1.3,0.5,2.7,1.1,4,1.5
			s2.6,0.8,3.8,1.4c1.6,0.7,3.3,1.2,5,1.8c3.8,1.2,7.2,3,10.7,5c2.4,1.4,4.8,2.9,6.9,4.5c1.8,1.4,3.5,3.2,4.9,5.1
			c1.2,1.6,2.5,3.1,3.5,4.8c1.8,3,3.5,6.2,4.2,9.7c2.3,11.4,1.4,10.3,1.6,19.1c0.1,4.1-1.1,8-2.1,11.8c-0.5,2-1.3,3.9-2.3,5.8
			c-0.9,1.9-2.2,3.6-3.3,5.4c-1.8,2.9-4,5.5-6.6,7.6c-3.8,3-7.7,6-12.5,7.4c-2.7,1.8-5.9,1.9-8.9,3c-1.6,0.6-3.5,0.6-5.2,0.5
			c-1.6-0.1-2.9,0.7-4.5,0.6c-1.7-0.1-3.3,0.2-5-0.4c-1.4-0.5-3.1,0.2-4.7-0.5c-0.9-0.4-2.1-0.3-3.1-0.5c-3.1-0.5-5.9-1.7-8.7-2.9
			c-2.8-1.2-5.3-2.7-7.8-4.5c-3-2.2-5.7-4.6-8-7.6c-1.7-2.1-2.8-4.5-4.7-6.4c-2.7,2.3-5.2,4.7-8,6.7c-2.6,1.8-5.1,3.8-8,5.1
			c-0.7,0.3-1.3,1-2,1.3c-0.7,0.4-1.5,0.6-2.2,1.1c-1.8,1.2-3.9,1.9-5.9,2.7c-2.1,0.9-4.3,1.7-6.6,2.3c-1.8,0.5-3.6,0.9-5.4,1.4
			c-2.3,0.6-4.7,0.9-7.1,1.2c-1.9,0.2-3.9,0-5.7,0.5c-2.2,0.6-4.4,0.4-6.5,0.4c-1.1,0-2.3-0.4-3.4-0.5c-1.2-0.1-2.5,0.2-3.6-0.1
			c-1.1-0.3-2.1-0.4-3.2-0.5c-1-0.1-1.9-0.3-2.9-0.5c-1.1-0.2-2.4,0-3.1-0.6c-0.9-0.7-2.1,0.1-2.7-1c-2.2,0-4-1.2-6-1.8
			s-3.9-1.5-5.8-2.3c-4.1-1.7-7.8-4.1-11.6-6.4c-1.4-0.9-2.8-2-4.2-3c-3.3-2.6-6.2-5.7-9.1-8.6c-0.6-0.6-1.2-1.2-2-2
			c-0.3,0.8-0.4,1.4-0.7,1.9c-1.9,3.4-3.7,6.9-6.6,9.7c-2.7,2.8-5.6,5.3-8.9,7.3c-2.1,1.3-4.2,2.4-6.5,3.2c-0.2,0.1-0.4,0.2-0.7,0.3
			c-2.8,1.4-5.9,2-8.9,2.8c-1.4,0.4-3,0.1-4.2,0.6c-1.4,0.6-2.7,0.2-4,0.4c-5.1,1-10.2,0.4-15.3,0.5c-5.2,0.1-10.4,0-15.6,0
			c-5.1,0-10.2,0-15.3,0c-5.2,0-10.4,0-15.6,0C390.4,354.5,389.7,354.5,388.7,354.5z M552.8,333.8c3.8,0.1,7.5-0.3,11.3-1
			c1.9-0.4,3.8-0.8,5.7-1.3c2.4-0.5,4.7-1.7,6.9-2.7c1.4-0.6,2.9-1.1,4-2.3c3.4-1.3,6-3.8,8.6-6.1c4.5-3.9,8.3-8.5,10.9-13.9
			c1.5-1.5,2.3-3.6,3-5.5s1.9-3.8,2.1-5.9c0.8-0.6,0.2-1.6,0.6-2.1c0.6-0.7,0.2-1.5,0.5-2.1c1.7-3.8,1.4-7.9,2-11.9
			c0.5-3.5-0.7-6.9-0.5-10.4c0-0.1,0-0.2,0-0.3c-0.9-2-0.9-4.3-1.5-6.4c-0.8-3.3-2-6.5-3.2-9.6c-2.2-5.5-5.6-10.3-9.3-14.8
			c-2.9-3.6-6.5-6.5-10.2-9.1s-7.8-4.4-11.9-6.2c-1.2-0.5-2.5-0.7-3.7-1.1c-1.1-0.4-2.4-0.7-3.5-0.9c-1.3-0.2-2.6-0.9-3.9-0.6
			c-1.4,0.2-2.6-0.5-3.9-0.5c-2.4,0-4.8-0.1-7.3,0c-2.4,0.1-4.7,0.6-7.1,0.9c-3,0.5-5.9,1.1-8.7,2.1c-3.1,1.1-6.2,2.3-8.9,4.1
			c-3.2,2.2-6.5,4.3-9.3,7.1c-3.5,3.5-6.5,7.3-9,11.5c-1.8,3-3.2,6.1-4.9,9.1c-0.4,3.4-2.7,6.3-2.6,9.8c-1.2,0.8-0.1,2.2-1,3.3
			c-0.6,0.8,0.1,2.2-0.4,3.4c-0.4,1-0.2,2.4-0.2,3.6c0,2.2,0,4.5,0,6.7c0,0.5-0.2,1.1,0,1.5c0.7,1.7,0.7,3.5,1,5.3
			c0.4,1.8,0.5,3.6,1.1,5.2c1.5,4.2,2.8,8.5,5.1,12.4c1.8,3.2,3.7,6.4,6.1,9.1c3.5,3.9,7.2,7.8,11.6,10.7c3.2,2,6.5,3.8,10.1,5
			c2.4,0.8,4.6,2,7.2,2c0.7,1.1,2,0.2,3.1,0.8c0.9,0.6,2.3,0.3,3.4,0.5c1.1,0.1,2.2,0.2,3.3,0.2
			C550.6,333.8,551.7,333.8,552.8,333.8z M631.8,278.1c0.1,1.8-0.7,3.1-0.6,4.6c0.1,1.5-0.1,3-0.4,4.5c-0.4,2.1-0.8,4.2-1.1,6.3
			c-0.6,4-2,7.6-3.4,11.3c-0.7,1.8-0.8,2.4-0.8,4.7c-0.1,2.4,0.5,4.7,1,7.1c0.7,2.9,3,7.4,4.4,8.8c2.2,2.3,4.3,4.6,7.4,6
			c2.7,1.2,5.8,2.5,8.3,2.5c1.5,0,2.9,0,4.4,0c2.1,0.1,4.1-0.5,6-1.1c4.5-1.2,8-3.9,10.9-7.4c1.7-2.1,2.7-4.7,3.6-7.3
			c0.8-2.2,0.9-4.7,1.2-7c0.1-1.1,0.1-2.2,0-3.4c-0.1-1.1-0.4-2.1-0.5-3.2c0-2-0.7-3.9-1.7-5.5c-1.6-2.6-3.5-5.1-6.3-6.8
			c-2.5-1.5-5-2.9-7.7-4.1c-0.7-0.3-1.4-0.7-2.2-1c-2.8-1.1-5.5-2.1-8.3-3.1c-2.6-1-5.2-2-7.8-3.1
			C636.2,280,634.1,279.1,631.8,278.1z"/>
		<path id="XMLID_81_" class="st0" d="M100.6,278.8c0.1,1,0,1.7-0.5,2.5c-2.8,4-5.4,8.2-8.2,12.1c-2.7,3.8-5.1,7.7-7.8,11.5
			c-2.3,3.3-4.4,6.7-6.8,9.9c-2.6,3.5-4.9,7.2-7.4,10.7c-2.4,3.4-4.5,7.2-7,10.5c-2.4,3.2-4.4,6.7-6.8,9.9c-2,2.7-3.9,5.4-5.6,8.3
			c-0.5,0.8-1.3,0.7-2,0.7c-9.1,0-18.1,0-27.2,0c-0.2,0-0.5-0.1-0.9-0.1c1.7-3.1,3.9-5.6,5.9-8.2c2.1-2.7,4.1-5.4,6.2-8.1
			c2.1-2.7,4.1-5.3,6.1-8.1c2-2.8,4.2-5.5,6.2-8.3c2-2.7,4-5.5,6.1-8.1s4.1-5.4,6.1-8.1s4.1-5.3,6.4-8.2c-1.4-0.3-2.6-0.7-3.7-0.8
			c-4.4-0.5-8.5-1.8-12.6-3.3c-3.3-1.3-6.4-3.1-9.3-5c-1.2-0.8-2.3-1.6-3.3-2.6c-2.1-2.1-4.4-4-6.1-6.5c-0.8-1.2-1.8-2.4-2.5-3.6
			c-2-3.6-3.2-7.5-4.6-11.3c-0.3-0.9,0.2-2-0.6-2.9c-0.1-3.1-1.2-6-1.1-9.2c0.2-3.2-0.3-6.4,0.1-9.6c0.3-2.3,0.8-4.6,1.3-6.9
			c0.5-2.2,0.9-4.4,1.7-6.6c1.2-3.2,2.7-6.3,4.4-9.3c2.5-4.6,6.6-7.7,10-11.4c3.3-2,6.4-4.3,10.1-5.7c3.1-1.2,6.3-1.9,9.6-2.5
			c2.4-0.5,4.7-0.7,7.1-1.1c2.3-0.4,4.6-0.1,6.8-0.4c5.6-1,11.3-0.3,16.9-0.5c5.8-0.1,11.6,0,17.4,0c5.7,0,11.4-0.4,17.1,0.1
			s11.3,0.3,16.9,0.4c5.6,0.1,11.2,0,16.9,0c0.2,0,0.5,0.1,0.9,0.2c-0.5,0.9-0.8,1.7-1.4,2.3c-2.5,2.8-4.2,6.3-6.5,9.2
			c-2.9,3.8-5.2,7.9-8.1,11.7c-2.3,3-4.4,6.3-6.4,9.5c-1.3,2-2.6,3.9-4,5.9c-1.3,2-2.6,4-4.1,5.9c-1.9,2.4-3.5,5.1-5.2,7.7
			c-2.1,3.1-4.1,6.3-6.2,9.3c-3,4.3-6.1,8.5-8.8,13c-0.2,0.4-0.6,0.6-1,1c-9.5,0-19.1,0-28.9,0c0.1-0.6,0.1-1.2,0.4-1.6
			c2.1-2.9,4.3-5.6,6.4-8.5c1.7-2.5,3.6-4.9,5.4-7.3c1.3-1.7,2.7-3.4,4-5.1c1-1.3,1.9-2.7,3-4c1-1.2,1.9-2.5,2.8-3.8
			c1.2-1.8,2.7-3.4,4-5.1c1.7-2.2,3.3-4.3,5-6.5c1.9-2.5,3.8-4.9,5.6-7.5c0.8-1.2,1.8-2.2,2.7-3.3c0.3-0.4,0.4-0.9,0.6-1.6
			c-0.7,0-1.2-0.1-1.6-0.1c-12,0-24,0-36,0c-1.4,0-2.8,0.3-4.2,0.5c-1.3,0.2-2.7-0.4-3.9,0.5c-3-0.1-5.7,1.1-8.5,2.1
			c-2.5,0.9-4.9,2.1-7.1,3.7c-2.1,1.5-3.9,3.3-5.6,5.2c-2.1,2.5-3.5,5.3-4.5,8.5c-1,3.6-0.9,7.1-1,10.7c-0.1,3.9,1.6,9.2,3.7,12.4
			c2.1,3.2,4.8,6.1,8.2,8.1c3.3,2.1,6.7,3.5,11.5,4.7c1.7,0.4,3.3,0.7,5,1c9.1,1.7,18.2,0.8,27.3,1
			C99.4,278.8,99.9,278.8,100.6,278.8z"/>
	</g>
	<rect x="418.2" y="349.5" class="st1" width="328.1" height="46.2"/>
	<g>
		<path class="st0" d="M523.6,381c0,0.9-0.2,1.7-0.5,2.5c-0.3,0.8-0.9,1.4-1.4,1.9c-0.5,0.5-1.3,1-2,1.3c-0.8,0.3-1.6,0.4-2.5,0.4
			h-19v10.5h-6.3v-42.3h25.4c1.9,0,3.4,0.6,4.6,1.8c1.2,1.2,1.7,2.7,1.7,4.6V381H523.6z M517.1,380.8v-19.1h-19v19.1H517.1z"/>
		<path class="st0" d="M535.4,387.1h-6.4v-40.9h6.4V387.1z"/>
		<path class="st0" d="M572.1,387.1h-25.5c-0.9,0-1.7-0.1-2.6-0.4c-0.8-0.3-1.4-0.8-2-1.3c-0.5-0.5-1-1.2-1.3-2
			c-0.3-0.8-0.4-1.6-0.4-2.6v-6.3c0-1.8,0.5-3.3,1.8-4.5c1.2-1.2,2.7-1.8,4.5-1.8h19v-6.3h-25.4v-6.3h25.4c1.9,0,3.4,0.6,4.6,1.8
			s1.8,2.7,1.8,4.6V387.1z M565.7,380.8v-6.3h-19v6.3H565.7z"/>
		<path class="st0" d="M581.7,355.3l8.3,22.8l9.1-22.8h7L589,397.6h-7.1l4.5-11.1l-12.3-31.4h7.5V355.3z"/>
		<path class="st0" d="M639,371.2c0,1.1-0.1,2.1-0.3,3.1H613c0.3,1,0.9,1.9,1.5,2.8c0.6,0.9,1.4,1.6,2.3,2.3s1.7,1.1,2.8,1.4
			c1,0.3,2,0.5,3.1,0.5c3.2,0,5.8-1.3,7.8-3.8h7.3c-0.6,1.5-1.5,2.9-2.5,4.1c-1.1,1.2-2.3,2.3-3.5,3.1s-2.8,1.6-4.3,2
			c-1.5,0.5-3.1,0.8-4.8,0.8c-2.3,0-4.3-0.4-6.3-1.3c-2-0.9-3.8-2-5.3-3.5c-1.5-1.5-2.7-3.2-3.5-5.3s-1.3-4.1-1.3-6.3
			s0.4-4.4,1.3-6.3c0.9-2,2-3.8,3.5-5.3c1.5-1.5,3.2-2.7,5.3-3.5c2-0.9,4.1-1.3,6.3-1.3s4.4,0.4,6.3,1.3c2,0.9,3.8,2,5.3,3.5
			s2.7,3.2,3.5,5.3C638.4,366.9,639,368.9,639,371.2z M632,368.1c-0.3-1-0.9-1.9-1.5-2.8c-0.6-0.9-1.4-1.6-2.3-2.3s-1.8-1.1-2.8-1.4
			s-2-0.5-3.1-0.5s-2.1,0.2-3.1,0.5c-1,0.3-1.9,0.9-2.8,1.4c-0.9,0.6-1.6,1.3-2.3,2.3c-0.6,0.9-1.2,1.8-1.5,2.8H632z"/>
		<path class="st0" d="M672.7,368.1h-6.3v-6.3h-16.4v25.5h-6.3v-31.8h22.7c4.3,0,6.3,2.1,6.3,6.3v6.3H672.7z"/>
	</g>
</g>
</svg>
