<?xml version="1.0" encoding="utf-8"?>
<!-- Generator: Adobe Illustrator 19.0.0, SVG Export Plug-In . SVG Version: 6.00 Build 0)  -->
<svg version="1.1" id="Capa_1" xmlns="http://www.w3.org/2000/svg" xmlns:xlink="http://www.w3.org/1999/xlink" x="0px" y="0px"
	 viewBox="0 0 25.5 25.5" style="enable-background:new 0 0 25.5 25.5;" xml:space="preserve">
<style type="text/css">
	.st0{fill:url(#XMLID_2_);}
</style>
<g id="XMLID_3_">
	<linearGradient id="XMLID_2_" gradientUnits="userSpaceOnUse" x1="4.9889" y1="26.2529" x2="20.5217" y2="-0.6508">
		<stop  offset="0" style="stop-color:#C85331"/>
		<stop  offset="1" style="stop-color:#DD9C2D"/>
	</linearGradient>
	<path id="XMLID_4_" class="st0" d="M21.1,0.3H4.4c-2.3,0-4.2,1.9-4.2,4.2v11.4l0.4-1.6h0.8l0.4,1.6l-0.4,1.6H0.7l-0.4-1.6v5.2
		c0,2.3,1.9,4.2,4.2,4.2h16.7c2.3,0,4.2-1.9,4.2-4.2v-5.2c0,1.7-1.4,3.1-3.2,3.1c-0.1,0-8.9,0-8.9,0c-0.2,0-0.3-0.2-0.3-0.4V8.9
		c0-0.2,0.1-0.3,0.3-0.4c0.6-0.2,1.3-0.4,2.1-0.4c3,0,5.4,2.2,5.7,5c0.4-0.2,0.8-0.2,1.2-0.2c1.8,0,3.2,1.4,3.2,3.1V4.5
		C25.2,2.2,23.4,0.3,21.1,0.3L21.1,0.3z M4.6,19H3.8l-0.4-3.1l0.4-3.1h0.8l0.4,3.1L4.6,19z M7.7,19H6.9l-0.4-4l0.4-3.8h0.8l0.4,3.9
		L7.7,19z M10.8,19H10l-0.4-5.5L10,8.1h0.8l0.4,5.5L10.8,19z M10.8,19"/>
</g>
</svg>
