<?xml version="1.0" encoding="utf-8"?>
<!-- Generator: Adobe Illustrator 19.0.0, SVG Export Plug-In . SVG Version: 6.00 Build 0)  -->
<svg version="1.1" id="Capa_1" xmlns="http://www.w3.org/2000/svg" xmlns:xlink="http://www.w3.org/1999/xlink" x="0px" y="0px"
	 viewBox="0 0 25.5 25.5" style="enable-background:new 0 0 25.5 25.5;" xml:space="preserve">
<style type="text/css">
	.st0{fill:#FFFFFF;}
	.st1{fill:#653989;}
</style>
<path id="XMLID_19_" class="st0" d="M13.8,10V8.9c0-0.5,0.4-0.7,0.6-0.7c0.3,0,1.6,0,1.6,0V5.9l-2.1,0c-2.4,0-2.9,1.8-2.9,2.9V10
	H9.5v1.7v1.1h1.4c0,3.1,0,6.9,0,6.9h2.8c0,0,0-3.8,0-6.9h2.1l0.1-1.1L16,10H13.8z"/>
<path id="XMLID_5_" class="st0" d="M17,5.9H8.5c-1.5,0-2.7,1.2-2.7,2.7v2.8v1V17c0,1.5,1.2,2.7,2.7,2.7H17c1.5,0,2.7-1.2,2.7-2.7
	v-4.6v-1V8.5C19.6,7.1,18.4,5.9,17,5.9z M17.7,7.5l0.3,0v0.3v2l-2.3,0l0-2.3L17.7,7.5z M10.8,11.3c0.4-0.6,1.2-1,2-1
	c0.8,0,1.5,0.4,2,1c0.1,0.1,0.1,0.2,0.1,0.2c0.2,0.3,0.3,0.8,0.3,1.2c0,1.3-1.1,2.4-2.4,2.4c-1.3,0-2.4-1.1-2.4-2.4
	c0-0.4,0.1-0.8,0.3-1.2C10.7,11.5,10.7,11.4,10.8,11.3z M18.3,17c0,0.7-0.6,1.3-1.3,1.3H8.5c-0.7,0-1.3-0.6-1.3-1.3v-4.9v-0.7h2.1
	c-0.1,0.1-0.1,0.3-0.1,0.4C9,12.1,9,12.4,9,12.8c0,2.1,1.7,3.8,3.8,3.8c2.1,0,3.8-1.7,3.8-3.8c0-0.4-0.1-0.7-0.1-1
	c0-0.1-0.1-0.3-0.1-0.4h2.1v0.7V17z"/>
<g id="XMLID_2_">
	<circle id="XMLID_49_" class="st0" cx="12.8" cy="12.9" r="11.6"/>
	<path id="XMLID_47_" class="st1" d="M19.6,9.4c-0.5,0.2-1,0.4-1.6,0.4c0.6-0.3,1-0.9,1.2-1.5c-0.5,0.3-1.1,0.5-1.8,0.7
		c-0.5-0.5-1.2-0.9-2.1-0.9c-1.6,0-2.8,1.2-2.8,2.8c0,0.2,0,0.4,0.1,0.6c-2.3-0.1-4.4-1.2-5.8-2.9C6.6,9,6.5,9.5,6.5,10
		c0,1,0.5,1.8,1.3,2.3c-0.5,0-0.9-0.1-1.3-0.3c0,0,0,0,0,0c0,0.4,0.1,0.7,0.2,1c0.3,0.9,1.1,1.5,2.1,1.7c-0.2,0.1-0.5,0.1-0.7,0.1
		c-0.2,0-0.4,0-0.5-0.1c0.4,1.1,1.4,1.9,2.6,1.9c-1,0.7-2.2,1.2-3.5,1.2c-0.2,0-0.5,0-0.7,0c1.2,0.8,2.7,1.2,4.3,1.2
		c4.4,0,7.1-3.1,7.8-6.2c0.1-0.6,0.2-1.1,0.2-1.7c0-0.1,0-0.2,0-0.4C18.8,10.4,19.2,9.9,19.6,9.4z"/>
</g>
</svg>
