<?xml version="1.0" encoding="utf-8"?>
<!-- Generator: Adobe Illustrator 19.0.0, SVG Export Plug-In . SVG Version: 6.00 Build 0)  -->
<svg version="1.1" id="Capa_1" xmlns="http://www.w3.org/2000/svg" xmlns:xlink="http://www.w3.org/1999/xlink" x="0px" y="0px"
	 viewBox="168 -168.9 365 365.3" style="enable-background:new 168 -168.9 365 365.3;" xml:space="preserve">
<style type="text/css">
	.st0{fill:#8E45AD;}
	.st1{fill:#FFFFFF;}
</style>
<path class="st0" d="M350.7-164.2c-98.3,0-178,79.7-178,178s79.7,178,178,178s178-79.7,178-178S449-164.2,350.7-164.2z"/>
<path class="st1" d="M350.7,69.1c-30.6,0-55.3-24.8-55.3-55.3s24.8-55.3,55.3-55.3S406-16.7,406,13.8S381.2,69.1,350.7,69.1z"/>
<circle class="st0" cx="350.7" cy="13.8" r="21.3"/>
<path class="st1" d="M386.7-53.7c12-20.9,24.5-42.6,37.3-65c25,14.5,44.2,33.9,59,58.9c-22.4,12.9-44.3,25.5-65.1,37.4
	C407.3-33,397.4-43,386.7-53.7z"/>
<path class="st1" d="M315.7,82.8c-12,20.9-24.5,42.6-37.3,65c-25-14.5-44.2-33.9-59-58.9c22.4-12.9,44.3-25.5,65.1-37.4
	C295,62.1,304.9,72,315.7,82.8z"/>
</svg>
