<?xml version="1.0" encoding="utf-8"?>
<!-- Generator: Adobe Illustrator 19.0.0, SVG Export Plug-In . SVG Version: 6.00 Build 0)  -->
<svg version="1.1" id="Capa_1" xmlns="http://www.w3.org/2000/svg" xmlns:xlink="http://www.w3.org/1999/xlink" x="0px" y="0px"
	 viewBox="0 0 28.4 28.4" style="enable-background:new 0 0 28.4 28.4;" xml:space="preserve">
<style type="text/css">
	.st0{fill:#8E45AD;}
	.st1{fill:#FFFFFF;}
</style>
<circle id="XMLID_8_" class="st0" cx="14.2" cy="14.2" r="13.7"/>
<circle id="XMLID_11_" class="st1" cx="14.2" cy="14.2" r="4.3"/>
<circle id="XMLID_3_" class="st0" cx="14.2" cy="14.2" r="1.6"/>
<path id="XMLID_9_" class="st1" d="M11.5,19.5c-0.8-0.8-1.6-1.6-2.4-2.4C7.5,18,5.8,19,4.1,20c1.1,1.9,2.6,3.4,4.5,4.5
	C9.6,22.8,10.6,21.1,11.5,19.5z"/>
<path id="XMLID_12_" class="st1" d="M24.4,8.5c-1.1-1.9-2.6-3.4-4.5-4.5c-1,1.7-1.9,3.4-2.9,5c0.8,0.8,1.6,1.6,2.4,2.4
	C20.9,10.5,22.6,9.5,24.4,8.5z"/>
</svg>
