<?xml version="1.0" encoding="utf-8"?>
<!-- Generator: Adobe Illustrator 19.0.0, SVG Export Plug-In . SVG Version: 6.00 Build 0)  -->
<svg version="1.1" id="Capa_1" xmlns="http://www.w3.org/2000/svg" xmlns:xlink="http://www.w3.org/1999/xlink" x="0px" y="0px"
	 viewBox="0 0 25.5 25.5" style="enable-background:new 0 0 25.5 25.5;" xml:space="preserve">
<style type="text/css">
	.st0{fill:#FFFFFF;}
	.st1{fill:#653989;}
</style>
<path id="XMLID_19_" class="st0" d="M13.8,10V8.9c0-0.5,0.4-0.7,0.6-0.7c0.3,0,1.6,0,1.6,0V5.9l-2.1,0c-2.4,0-2.9,1.8-2.9,2.9V10
	H9.5v1.7v1.1h1.4c0,3.1,0,6.9,0,6.9h2.8c0,0,0-3.8,0-6.9h2.1l0.1-1.1L16,10H13.8z"/>
<g id="XMLID_2_">
	<circle id="XMLID_41_" class="st0" cx="12.8" cy="12.8" r="11.7"/>
	<path id="XMLID_4_" class="st1" d="M19.5,10c0,0-0.1-1-0.5-1.4C18.5,8,17.9,8,17.6,7.9c-1.9-0.1-4.8-0.1-4.8-0.1h0
		c0,0-2.9,0-4.8,0.1C7.6,8,7.1,8,6.5,8.5C6.1,9,6,10,6,10s-0.1,1.2-0.1,2.3v0.1v1c0,1.2,0.1,2.3,0.1,2.3s0.1,1,0.5,1.4
		c0.5,0.6,1.2,0.6,1.5,0.6c1.1,0.1,4.7,0.1,4.7,0.1s2.9,0,4.8-0.2c0.3,0,0.9,0,1.4-0.6c0.4-0.4,0.5-1.4,0.5-1.4s0.1-1.2,0.1-2.3
		v-0.9v-0.2C19.7,11.1,19.5,10,19.5,10z M15.1,12.7l-3.7,2l0-3.1l0-0.9l1.7,0.9L15.1,12.7z"/>
</g>
</svg>
